<?xml version="1.0" encoding="UTF-8" standalone="no"?>
<!-- Created with Inkscape (http://www.inkscape.org/) -->

<svg
   width="96"
   height="96"
   viewBox="0 0 25.4 25.4"
   version="1.1"
   id="svg1"
   xml:space="preserve"
   inkscape:version="1.4 (86a8ad7, 2024-10-11)"
   sodipodi:docname="bimiLogo.svg"
   xmlns:inkscape="http://www.inkscape.org/namespaces/inkscape"
   xmlns:sodipodi="http://sodipodi.sourceforge.net/DTD/sodipodi-0.dtd"
   xmlns="http://www.w3.org/2000/svg"
   xmlns:svg="http://www.w3.org/2000/svg"><sodipodi:namedview
     id="namedview1"
     pagecolor="#ffffff"
     bordercolor="#000000"
     borderopacity="0.25"
     inkscape:showpageshadow="2"
     inkscape:pageopacity="0.0"
     inkscape:pagecheckerboard="0"
     inkscape:deskcolor="#d1d1d1"
     inkscape:document-units="mm"
     inkscape:zoom="2.3450521"
     inkscape:cx="109.37923"
     inkscape:cy="192.95947"
     inkscape:window-width="2560"
     inkscape:window-height="1369"
     inkscape:window-x="-8"
     inkscape:window-y="1132"
     inkscape:window-maximized="1"
     inkscape:current-layer="svg1" /><defs
     id="defs1"><rect
       x="252.01385"
       y="260.67081"
       width="173.13928"
       height="152.9397"
       id="rect1" /></defs><g
     inkscape:groupmode="layer"
     id="layer6"
     inkscape:label="4"
     transform="matrix(0.98659517,0,0,0.99062918,0.87880523,0.75634152)"><rect
       style="fill:#ffffff;fill-opacity:1;stroke:#000000;stroke-width:0;stroke-linecap:butt;stroke-linejoin:bevel;stroke-dasharray:none;stroke-opacity:1"
       id="rect23"
       width="25.659742"
       height="25.694136"
       x="-0.89074552"
       y="-0.7634961" /></g><g
     inkscape:groupmode="layer"
     id="layer5"
     inkscape:label="3"
     transform="matrix(0.27166475,0,0,0.27166475,-9.9741066,-14.711213)"><g
       id="g23"
       transform="matrix(0.81613504,0.47119579,-0.47119579,0.81613504,62.70181,-20.829655)"><path
         style="fill:#fd9803;fill-opacity:1;stroke:none;stroke-width:0.278474;stroke-dasharray:none"
         d="m 78.810454,99.850551 16.14497,25.359299 0.449894,-59.663227 8.237222,-6.75485 v 62.838107 c 0.45471,6.4127 -6.035165,17.0546 -15.455295,7.20168 l -9.376791,-14.52605 z"
         id="path2"
         sodipodi:nodetypes="cccccccc" /><path
         style="fill:#fd9803;fill-opacity:1"
         d="M 86.880859,54.339844 C 69.848062,53.098811 52.851467,61.28118 43.494141,76.634766 31.017705,97.106213 36.096544,123.80334 55.216797,138.26562 c 0,0 -0.243519,-7.3492 0,-12.30827 -1.556058,-1.71984 -2.433073,-3.56169 -3.620561,-5.49742 -1.187488,-1.93572 -2.188014,-3.96533 -2.99622,-6.06067 -0.808207,-2.09534 -1.424094,-4.25641 -1.842307,-6.45508 -0.418213,-2.19867 -0.638751,-4.43493 -0.656259,-6.68065 -0.01751,-2.245714 0.168015,-4.500884 0.561924,-6.737367 0.393909,-2.236483 0.996205,-4.454278 1.812243,-6.625245 0.816037,-2.170968 1.845817,-4.295107 3.094695,-6.344277 9.991024,-16.393362 30.673546,-22.525095 47.984375,-14.22461 l 4.089843,-8.527344 C 98.240244,56.21335 92.558459,54.753521 86.880859,54.339844 Z"
         id="path3"
         sodipodi:nodetypes="ssccsssssssccs" /><g
         id="g21"
         style="fill:#fd9803;fill-opacity:1" /><path
         style="fill:#112656;fill-opacity:1;stroke:none;stroke-width:0.278474;stroke-dasharray:none"
         d="m 78.810454,99.850551 16.14497,25.359299 0.449894,-59.663227 8.237222,-6.75485 v 62.838107 c 0.45471,6.4127 -6.035165,17.0546 -15.455295,7.20168 l -9.376791,-14.52605 z"
         id="path22"
         sodipodi:nodetypes="cccccccc"
         transform="rotate(180,83.574953,101.02321)" /><path
         style="fill:#112656;fill-opacity:1"
         d="M 86.880859,54.339844 C 69.848062,53.098811 52.851467,61.28118 43.494141,76.634766 31.017705,97.106213 36.096544,123.80334 55.216797,138.26562 c 0,0 -0.243519,-7.3492 0,-12.30827 -1.556058,-1.71984 -2.433073,-3.56169 -3.620561,-5.49742 -1.187488,-1.93572 -2.188014,-3.96533 -2.99622,-6.06067 -0.808207,-2.09534 -1.424094,-4.25641 -1.842307,-6.45508 -0.418213,-2.19867 -0.638751,-4.43493 -0.656259,-6.68065 -0.01751,-2.245714 0.168015,-4.500884 0.561924,-6.737367 0.393909,-2.236483 0.996205,-4.454278 1.812243,-6.625245 0.816037,-2.170968 1.845817,-4.295107 3.094695,-6.344277 9.991024,-16.393362 30.673546,-22.525095 47.984375,-14.22461 l 4.089843,-8.527344 C 98.240244,56.21335 92.558459,54.753521 86.880859,54.339844 Z"
         id="path23"
         sodipodi:nodetypes="ssccsssssssccs"
         transform="rotate(180,83.574953,101.02321)" /><g
         id="use21"
         transform="rotate(180,83.574954,101.02321)"
         style="fill:#112656;fill-opacity:1" /></g></g></svg>
